<?xml version="1.0" encoding="utf-8"?>
<!-- Generator: Adobe Illustrator 22.1.0, SVG Export Plug-In . SVG Version: 6.00 Build 0)  -->
<svg version="1.1" id="Ebene_1" xmlns="http://www.w3.org/2000/svg" xmlns:xlink="http://www.w3.org/1999/xlink" x="0px" y="0px"
	 viewBox="0 0 490.2 120" style="enable-background:new 0 0 490.2 120;" xml:space="preserve">
<style type="text/css">
	.st0{fill:#24292E;}
	.st1{fill:#6496C8;}
	.st2{fill:#64C896;}
</style>
<path class="st0" d="M181.3,8.4c6.4,5.6,9.7,13.5,9.7,23.8c0,10.7-3.2,19-9.7,24.9c-6.5,5.9-15.6,8.9-27.3,8.9h-20.4v27.5h-17.9V0
	H154C165.7,0,174.8,2.8,181.3,8.4z M168.6,45.8c3.6-2.9,5.4-7.3,5.4-13.1c0-5.7-1.8-10-5.4-12.8c-3.6-2.9-8.8-4.3-15.5-4.3h-19.5
	v34.6H153C159.8,50.2,165,48.7,168.6,45.8z"/>
<path class="st0" d="M247.3,93.4v-8.7c-2.5,3.1-5.7,5.5-9.6,7.1c-3.9,1.6-8.4,2.4-13.5,2.4c-5,0-9.4-1-13.2-2.9
	c-3.8-1.9-6.7-4.6-8.7-7.9c-2.1-3.4-3.1-7.2-3.1-11.3c0-6.7,2.4-11.9,7.1-15.7c4.7-3.8,11.4-5.7,20-5.8h20.8v-1.9
	c0-4.2-1.4-7.4-4.1-9.7s-6.8-3.5-12-3.5c-6.8,0-13.8,2.2-21.2,6.7l-6.3-12c5.6-3.1,10.7-5.4,15.3-6.7c4.6-1.4,10-2.1,16.1-2.1
	c9.3,0,16.4,2.2,21.6,6.7c5.1,4.4,7.7,10.7,7.8,18.7l0.1,46.7H247.3z M241.1,77.4c3.6-2.4,5.6-5.3,6-8.7v-6.4h-18
	c-4.6,0-8,0.7-10.2,2.1c-2.2,1.4-3.3,3.6-3.3,6.7c0,3,1.1,5.4,3.4,7.2c2.3,1.8,5.4,2.7,9.3,2.7C233.3,80.9,237.6,79.7,241.1,77.4z"
	/>
<path class="st0" d="M349.1,22v64.6c0,6.8-1.5,12.7-4.6,17.7c-3.1,5-7.4,8.9-13.1,11.6c-5.6,2.7-12.2,4.1-19.7,4.1
	c-10.9,0-20.9-3.2-30.2-9.5l6.9-12.5c6.8,5,14.2,7.5,22.3,7.5c6.4,0,11.5-1.7,15.3-4.9c3.8-3.3,5.7-7.8,5.7-13.5v-8.4
	c-2.4,3.6-5.5,6.4-9.3,8.3c-3.8,1.9-8.3,2.9-13.4,2.9c-6.2,0-11.7-1.4-16.6-4.3c-4.8-2.9-8.5-6.9-11.2-12.1c-2.7-5.2-4-11.2-4-18
	c0-6.7,1.3-12.6,4-17.7s6.4-9.1,11.2-11.9c4.8-2.8,10.3-4.3,16.6-4.3c5,0,9.4,1,13.3,2.9c3.9,2,7,4.7,9.4,8.3V22H349.1z M326.5,70.5
	c3.5-3.8,5.3-8.7,5.3-14.7s-1.8-11-5.3-14.8c-3.5-3.8-8.1-5.7-13.7-5.7c-5.6,0-10.2,1.9-13.7,5.7c-3.5,3.8-5.3,8.7-5.4,14.7
	c0.1,6.1,1.9,11,5.4,14.7c3.5,3.8,8.1,5.7,13.7,5.7C318.4,76.2,323,74.3,326.5,70.5z"/>
<path class="st0" d="M425,31.2c5.7,6.5,8.6,15.6,8.6,27.4c0,2.3,0,4-0.1,5.2h-52.7c1.2,5.1,3.5,9.1,7.1,11.9c3.6,2.9,8,4.3,13.3,4.3
	c3.6,0,7.1-0.7,10.5-2.1c3.3-1.4,6.3-3.4,8.7-5.9l9.3,9.7c-3.6,3.9-7.9,6.9-13,9.1c-5.1,2.1-10.8,3.2-17,3.2
	c-7.3,0-13.7-1.5-19.3-4.5c-5.6-3-9.9-7.3-12.9-12.7c-3-5.5-4.5-11.8-4.5-18.9s1.5-13.4,4.6-19c3.1-5.5,7.4-9.8,12.9-12.9
	c5.5-3.1,11.8-4.6,18.8-4.6C410.7,21.5,419.2,24.7,425,31.2z M417.7,52.2c-0.2-5.3-1.9-9.4-5.2-12.5c-3.3-3.1-7.6-4.7-13.1-4.7
	c-5.1,0-9.3,1.5-12.7,4.6c-3.4,3.1-5.5,7.3-6.3,12.6H417.7z"/>
<path class="st0" d="M475.7,25.2c4.1-2.4,9-3.7,14.5-3.8v16.8c-7.4-0.4-13.3,1.3-17.7,5.1c-4.4,3.9-6.6,9.1-6.6,15.7v34.4h-17.4V22
	h17.4v13.7C468.3,31.1,471.6,27.6,475.7,25.2z"/>
<rect y="31.1" class="st1" width="44.1" height="62.3"/>
<polygon class="st2" points="39.1,0.1 79.9,0.1 79.9,57.8 62,57.8 62,15.6 39.1,15.6 "/>
</svg>
